<svg width="20mm" height="20mm" viewBox="0 0 20 20" xmlns="http://www.w3.org/2000/svg">
   <path
      d="M10.07.342c-3.316 0-5.473 1.057-5.473 4.126l-.025 11.285c0 1.6.431 3.927 5.421 3.905 4.99-.022 4.986-2.904 4.977-3.933l-.043-5.053c-.014-1.658-1.167-2.686-2.893-2.75l-2.275-.05s-.633-.194-.929-.554c-.296-.36-.29-1.104-.29-1.104V4.626S8.72 3.23 9.943 3.23c1.223 0 1.33 1.484 1.33 1.484l-.024 1.313 3.597.058-.019-1.91c0-2.869-1.442-3.832-4.758-3.832zM10 10c1.09 0 1.389.626 1.384 1.362l-.019 3.79c0 .701-.219 1.341-1.365 1.341s-1.64-.431-1.64-1.144l.012-4.063C8.372 10.56 8.91 10 10 10z"
      fill="#9e9c9c" />
   <path
      d="M10.07.325c-3.316 0-5.473 1.057-5.473 4.127L4.59 7.748c0 1.225 1.222 2.235 3.059 2.235l2.617.014c.253 0 1.118.124 1.118 1.345l-.019 3.81c0 1.013-.399 1.324-1.365 1.324s-1.606-.49-1.595-.802l-.044-1.347-3.788-.009v1.816c0 1.101.43 3.53 5.42 3.507 4.99-.022 4.986-2.904 4.977-3.933l-.043-5.053c-.014-1.658-1.167-2.686-2.893-2.75l-2.274-.05s-.634-.194-.93-.554c-.296-.36-.29-1.104-.29-1.104V4.61s.18-1.398 1.404-1.398c1.223 0 1.33 1.484 1.33 1.484L11.25 6.01l3.597.058-.019-1.912c0-2.867-1.442-3.831-4.758-3.831z"
      fill="#fafafa" stroke="#2b2728" stroke-width=".316" />
   <path
      d="M10.07.342c-3.316 0-5.473 1.057-5.473 4.126l-.025 11.285c0 1.6.431 3.927 5.421 3.905 4.99-.022 4.986-2.904 4.977-3.933l-.043-5.053c-.014-1.658-1.167-2.686-2.893-2.75l-2.275-.05s-.633-.194-.929-.554c-.296-.36-.29-1.104-.29-1.104V4.626S8.72 3.23 9.943 3.23c1.223 0 1.33 1.484 1.33 1.484l-.024 1.313 3.597.058-.019-1.91c0-2.869-1.442-3.832-4.758-3.832zM10 10c1.09 0 1.389.626 1.384 1.362l-.019 3.79c0 .701-.219 1.341-1.365 1.341s-1.64-.431-1.64-1.144l.012-4.063C8.372 10.56 8.91 10 10 10z"
      fill="none" stroke="#2b2728" stroke-width=".316" />
</svg>