<?xml version="1.0" encoding="UTF-8" standalone="no"?>
<!-- Created with Inkscape (http://www.inkscape.org/) -->

<svg
   width="20mm"
   height="20mm"
   viewBox="0 0 20 20"
   version="1.1"
   id="svg1"
   inkscape:version="1.4 (86a8ad7, 2024-10-11)"
   sodipodi:docname="icon.svg"
   xmlns:inkscape="http://www.inkscape.org/namespaces/inkscape"
   xmlns:sodipodi="http://sodipodi.sourceforge.net/DTD/sodipodi-0.dtd"
   xmlns="http://www.w3.org/2000/svg"
   xmlns:svg="http://www.w3.org/2000/svg">
  <sodipodi:namedview
     id="namedview1"
     pagecolor="#505050"
     bordercolor="#eeeeee"
     borderopacity="1"
     inkscape:showpageshadow="0"
     inkscape:pageopacity="0"
     inkscape:pagecheckerboard="0"
     inkscape:deskcolor="#505050"
     inkscape:document-units="mm"
     inkscape:zoom="8.3740179"
     inkscape:cx="33.436757"
     inkscape:cy="32.720255"
     inkscape:window-width="1278"
     inkscape:window-height="1368"
     inkscape:window-x="-7"
     inkscape:window-y="716"
     inkscape:window-maximized="0"
     inkscape:current-layer="layer1" />
  <defs
     id="defs1">
    <clipPath
       clipPathUnits="userSpaceOnUse"
       id="clipPath6">
      <g
         inkscape:label="Clip"
         id="use6" />
    </clipPath>
  </defs>
  <g
     inkscape:label="Ebene 1"
     inkscape:groupmode="layer"
     id="layer1">
    <path
       id="path8"
       style="display:inline;fill:#9e9c9c;fill-opacity:1;stroke:none;stroke-width:0.315572;stroke-opacity:1"
       d="m 10.0697,0.34177968 c -3.3160933,0 -5.4723772,1.05701632 -5.4723772,4.12666022 L 4.5722472,15.753487 c 0,1.599662 0.4311193,3.926566 5.4209058,3.904456 4.989792,-0.0221 4.985665,-2.904035 4.976952,-3.933119 l -0.04315,-5.053106 C 14.912792,9.0141412 13.759868,7.9859398 12.03363,7.9212058 L 9.7594931,7.8721265 c 0,0 -0.6331728,-0.1945262 -0.92951,-0.5545954 C 8.5336504,6.9574619 8.5393335,6.2136728 8.5393335,6.2136728 v -1.587316 c 0,0 0.1809736,-1.3978201 1.4042375,-1.3978201 1.223261,0 1.330721,1.4844758 1.330721,1.4844758 l -0.02451,1.313351 3.59722,0.057991 -0.01865,-1.911287 c -3e-6,-2.8675974 -1.442556,-3.83128772 -4.75865,-3.83128772 z M 10,10 c 1.09068,0 1.389001,0.625761 1.384425,1.36183 l -0.01924,3.789454 c 0,0.702031 -0.218889,1.341676 -1.365187,1.341676 -1.1462972,0 -1.6392015,-0.431253 -1.6392015,-1.143653 l 0.011487,-4.063473 C 8.3722845,10.561028 8.9093202,10 10,10 Z"
       sodipodi:nodetypes="zccscscccccscccczzcczccz"
       inkscape:label="6" />
    <path
       id="path1"
       style="display:inline;fill:#fafafa;fill-opacity:1;stroke:#2b2728;stroke-width:0.315572;stroke-opacity:1"
       d="m 10.069734,0.32492676 c -3.316094,0 -5.472378,1.05701634 -5.472378,4.12666004 l -0.00732,3.2959661 c 0,1.2253209 1.2219508,2.2355338 3.0585237,2.2355338 0,0 2.4993173,0.013824 2.6175063,0.013824 0.252911,0 1.118417,0.1243153 1.118417,1.3449743 l -0.0193,3.809399 c 0,1.014208 -0.399184,1.324824 -1.36515,1.324824 -0.9659667,0 -1.6055527,-0.489327 -1.5947637,-0.802208 l -0.044351,-1.347161 -3.7877577,-0.0084 c 0,0 -8.803e-4,1.37864 -8.803e-4,1.815186 0,1.101923 0.4311232,3.529692 5.4209107,3.507582 4.989792,-0.0221 4.985664,-2.904035 4.976951,-3.933119 l -0.04315,-5.053106 C 14.912826,8.9972882 13.759902,7.9690867 12.033664,7.9043528 L 9.7595263,7.8552736 c 0,0 -0.6331727,-0.1945262 -0.92951,-0.5545954 C 8.5336836,6.9406088 8.5393668,6.1968198 8.5393668,6.1968198 v -1.587316 c 0,0 0.1809735,-1.3978202 1.4042382,-1.3978202 1.223261,0 1.330721,1.4844758 1.330721,1.4844758 l -0.02451,1.3133511 3.597221,0.057991 -0.01865,-1.911287 c -3e-6,-2.8675973 -1.442557,-3.83128764 -4.75865,-3.83128764 z"
       sodipodi:nodetypes="zcccscczcccsscscccccsccccz"
       inkscape:label="S" />
    <path
       id="path9"
       style="display:inline;fill:none;fill-opacity:1;stroke:#2b2728;stroke-width:0.315572;stroke-opacity:1"
       d="m 10.0697,0.34177968 c -3.3160933,0 -5.4723772,1.05701632 -5.4723772,4.12666022 L 4.5722472,15.753487 c 0,1.599662 0.4311193,3.926566 5.4209058,3.904456 4.989792,-0.0221 4.985665,-2.904035 4.976952,-3.933119 l -0.04315,-5.053106 C 14.912792,9.0141412 13.759868,7.9859398 12.03363,7.9212058 L 9.7594931,7.8721265 c 0,0 -0.6331728,-0.1945262 -0.92951,-0.5545954 C 8.5336504,6.9574619 8.5393335,6.2136728 8.5393335,6.2136728 v -1.587316 c 0,0 0.1809736,-1.3978201 1.4042375,-1.3978201 1.223261,0 1.330721,1.4844758 1.330721,1.4844758 l -0.02451,1.313351 3.59722,0.057991 -0.01865,-1.911287 c -3e-6,-2.8675974 -1.442556,-3.83128772 -4.75865,-3.83128772 z M 10,10 c 1.09068,0 1.389001,0.625761 1.384425,1.36183 l -0.01924,3.789454 c 0,0.702031 -0.218889,1.341676 -1.365187,1.341676 -1.1462972,0 -1.6392015,-0.431253 -1.6392015,-1.143653 l 0.011487,-4.063473 C 8.3722845,10.561028 8.9093202,10 10,10 Z"
       sodipodi:nodetypes="zccscscccccscccczzcczccz"
       inkscape:label="6 outline" />
  </g>
</svg>
