<svg width="799.68" height="599.76" viewBox="0 0 3332 2499" xmlns="http://www.w3.org/2000/svg">
<g stroke-linecap="round"  id="Doors">
<path d="M869.25,1012.69 L921.72,1012.69" stroke-width="15" stroke-opacity="1" stroke-linejoin="round"/>
<path d="M1165.25,1012.69 L1217.72,1012.69" stroke-width="15" stroke-opacity="1" stroke-linejoin="round"/>
<path d="M907.25,1560.69 L959.72,1560.69" stroke-width="15" stroke-opacity="1" stroke-linejoin="round"/>
<path d="M684.25,1796.69 L736.72,1796.69" stroke-width="15" stroke-opacity="1" stroke-linejoin="round"/>
<path d="M1121.31,1720.25 L1121.31,1772.72" stroke-width="15" stroke-opacity="1" stroke-linejoin="round"/>
<path d="M1747.31,1180.25 L1747.31,1232.72" stroke-width="15" stroke-opacity="1" stroke-linejoin="round"/>
<path d="M2220.25,968.81 L2167.78,968.81" stroke-width="15" stroke-opacity="1" stroke-linejoin="round"/>
<path d="M2024.25,1392.81 L1971.78,1392.81" stroke-width="15" stroke-opacity="1" stroke-linejoin="round"/>
<path d="M2276.73,1424.09 L2276.54,1530.12" stroke-width="15" stroke-opacity="1" stroke-linejoin="round"/>
<path d="M1747.31,1782.25 L1747.31,1834.72" stroke-width="15" stroke-opacity="1" stroke-linejoin="round"/>
<path d="M1667.75,1560.31 L1615.28,1560.31" stroke-width="15" stroke-opacity="1" stroke-linejoin="round"/>
<path d="M2859.75,2129.31 L2807.28,2129.31" stroke-width="15" stroke-opacity="1" stroke-linejoin="round"/>
<path d="M2411.25,1037.81 L2358.78,1037.81" stroke-width="15" stroke-opacity="1" stroke-linejoin="round"/>
<path d="M2114.69,793.75 L2114.69,741.28" stroke-width="15" stroke-opacity="1" stroke-linejoin="round"/>
<path d="M1747.69,920.75 L1747.69,868.28" stroke-width="15" stroke-opacity="1" stroke-linejoin="round"/>
<path d="M653.25,1012.69 L705.72,1012.69" stroke-width="15" stroke-opacity="1" stroke-linejoin="round"/>
</g>
</svg>
